<svg xmlns="http://www.w3.org/2000/svg" xmlns:xlink="http://www.w3.org/1999/xlink" width="316pt" height="560"><g id="viewport" class="graph" transform="scale(1 1) rotate(0) translate(4 416)"><title>G</title><polygon fill="#fff" stroke="#fff" points="-4 5 -4 -416 313 -416 313 5 -4 5"/><g id="graph2" class="cluster"><title>cluster_default</title><polyline fill="none" stroke="gray" points="20 -8 288 -8"/><path fill="none" stroke="gray" d="M288,-8C294,-8 300,-14 300,-20"/><polyline fill="none" stroke="gray" points="300 -20 300 -392"/><path fill="none" stroke="gray" d="M300,-392C300,-398 294,-404 288,-404"/><polyline fill="none" stroke="gray" points="288 -404 20 -404"/><path fill="none" stroke="gray" d="M20,-404C14,-404 8,-398 8,-392"/><polyline fill="none" stroke="gray" points="8 -392 8 -20"/><path fill="none" stroke="gray" d="M8,-20C8,-14 14,-8 20,-8"/><text x="154" y="-391.2" fill="gray" font-family="Times,serif" font-size="11" text-anchor="middle">default</text></g><g id="node2" class="node"><title>_fiDictionary</title><a target="_parent" xlink:href="db_fidictionary.class.html" xlink:title="fiDictionary"><polygon fill="none" stroke="#000" points="278 -376 180 -376 180 -340 278 -340 278 -376"/><text x="229" y="-355.2" font-family="Courier New" font-size="11" text-anchor="middle">fiDictionary</text></a></g><g id="node3" class="node"><title>_fiHooks</title><a target="_parent" xlink:href="db_fihooks.class.html" xlink:title="fiHooks"><polygon fill="none" stroke="#000" points="261 -322 197 -322 197 -286 261 -286 261 -322"/><text x="229" y="-301.2" font-family="Courier New" font-size="11" text-anchor="middle">fiHooks</text></a></g><g id="node4" class="node"><title>_fiRequest</title><a target="_parent" xlink:href="db_firequest.class.html" xlink:title="fiRequest"><polygon fill="none" stroke="#000" points="267.5 -268 190.5 -268 190.5 -232 267.5 -232 267.5 -268"/><text x="229" y="-247.2" font-family="Courier New" font-size="11" text-anchor="middle">fiRequest</text></a></g><g id="node5" class="node"><title>_fiValidator</title><a target="_parent" xlink:href="db_fivalidator.class.html" xlink:title="fiValidator"><polygon fill="none" stroke="#000" points="274.5 -214 183.5 -214 183.5 -178 274.5 -178 274.5 -214"/><text x="229" y="-193.2" font-family="Courier New" font-size="11" text-anchor="middle">fiValidator</text></a></g><g id="node6" class="node"><title>_FormIt</title><a target="_parent" xlink:href="db_formit.class.html" xlink:title="FormIt"><polygon fill="none" stroke="#000" points="257.5 -160 200.5 -160 200.5 -124 257.5 -124 257.5 -160"/><text x="229" y="-139.2" font-family="Courier New" font-size="11" text-anchor="middle">FormIt</text></a></g><g id="node7" class="node"><title>_fiCountryOptions</title><a target="_parent" xlink:href="db_module_ficountryoptions.class.html" xlink:title="fiCountryOptions"><polygon fill="none" stroke="#000" points="291.5 -106 166.5 -106 166.5 -70 291.5 -70 291.5 -106"/><text x="229" y="-85.2" font-family="Courier New" font-size="11" text-anchor="middle">fiCountryOptions</text></a></g><g id="node8" class="node"><title>_fiModule</title><a target="_parent" xlink:href="db_module_fimodule.class.html" xlink:title="&lt;I&gt;_fiModule&lt;/I&gt;"><polygon fill="none" stroke="#000" points="94 -79 16 -79 16 -43 94 -43 94 -79"/><text x="24.5" y="-59.2" font-family="Courier New" font-size="11" text-anchor="start">_fiModule</text></a></g><g id="edge3" class="edge"><title>_fiCountryOptions-&gt;_fiModule</title><path fill="none" stroke="#000" d="M166.39,-78.3286C145.963,-75.1221 123.534,-71.6013 104.26,-68.5757"/><polygon fill="none" stroke="#000" points="104.626 -65.09 94.204 -66.997 103.54 -72.006 104.626 -65.09"/></g><g id="node9" class="node"><title>_fiStateOptions</title><a target="_parent" xlink:href="db_module_fistateoptions.class.html" xlink:title="fiStateOptions"><polygon fill="none" stroke="#000" points="284.5 -52 173.5 -52 173.5 -16 284.5 -16 284.5 -52"/><text x="229" y="-31.2" font-family="Courier New" font-size="11" text-anchor="middle">fiStateOptions</text></a></g><g id="edge5" class="edge"><title>_fiStateOptions-&gt;_fiModule</title><path fill="none" stroke="#000" d="M173.105,-42.6172C150.969,-46.0921 125.655,-50.0657 104.24,-53.4275"/><polygon fill="none" stroke="#000" points="103.407 -50.015 94.071 -55.024 104.492 -56.931 103.407 -50.015"/></g></g><script xlink:href="js/SVGPan.js"/></svg>